<svg width="512" height="512" viewBox="0 0 512 512" fill="none" xmlns="http://www.w3.org/2000/svg">
  <defs>
    <linearGradient id="bgGradient" x1="72" y1="72" x2="440" y2="440" gradientUnits="userSpaceOnUse">
      <stop stop-color="#0F172A"/>
      <stop offset="0.55" stop-color="#111B2E"/>
      <stop offset="1" stop-color="#0B1323"/>
    </linearGradient>
    <linearGradient id="accentGradient" x1="118" y1="118" x2="394" y2="394" gradientUnits="userSpaceOnUse">
      <stop stop-color="#38BDF8"/>
      <stop offset="0.52" stop-color="#22C55E"/>
      <stop offset="1" stop-color="#7DD3FC"/>
    </linearGradient>
    <linearGradient id="railGradient" x1="110" y1="120" x2="402" y2="398" gradientUnits="userSpaceOnUse">
      <stop stop-color="#67E8F9" stop-opacity="0.95"/>
      <stop offset="1" stop-color="#22C55E" stop-opacity="0.95"/>
    </linearGradient>
    <clipPath id="clipCard">
      <rect x="48" y="48" width="416" height="416" rx="104"/>
    </clipPath>
  </defs>

  <rect x="48" y="48" width="416" height="416" rx="104" fill="url(#bgGradient)"/>
  <rect x="48.75" y="48.75" width="414.5" height="414.5" rx="103.25" stroke="#35507A" stroke-opacity="0.55" stroke-width="1.5"/>

  <g clip-path="url(#clipCard)">
    <path d="M0 96H512" stroke="#233552" stroke-opacity="0.5" stroke-width="2"/>
    <path d="M0 176H512" stroke="#233552" stroke-opacity="0.35" stroke-width="2"/>
    <path d="M0 256H512" stroke="#233552" stroke-opacity="0.35" stroke-width="2"/>
    <path d="M0 336H512" stroke="#233552" stroke-opacity="0.35" stroke-width="2"/>
    <path d="M96 0V512" stroke="#233552" stroke-opacity="0.45" stroke-width="2"/>
    <path d="M176 0V512" stroke="#233552" stroke-opacity="0.32" stroke-width="2"/>
    <path d="M256 0V512" stroke="#233552" stroke-opacity="0.32" stroke-width="2"/>
    <path d="M336 0V512" stroke="#233552" stroke-opacity="0.32" stroke-width="2"/>
  </g>

  <circle cx="368" cy="150" r="62" fill="#38BDF8" fill-opacity="0.08"/>
  <circle cx="368" cy="150" r="40" fill="#38BDF8" fill-opacity="0.12"/>
  <circle cx="350" cy="346" r="94" fill="#22C55E" fill-opacity="0.06"/>
  <circle cx="350" cy="346" r="58" fill="#22C55E" fill-opacity="0.12"/>

  <rect x="106" y="106" width="300" height="300" rx="76" fill="#0E1625" fill-opacity="0.72"/>
  <rect x="106.75" y="106.75" width="298.5" height="298.5" rx="75.25" stroke="url(#accentGradient)" stroke-opacity="0.42" stroke-width="1.5"/>

  <path
    d="M164 333V178C164 166.954 172.954 158 184 158H206.5C214.259 158 221.328 162.469 224.653 169.469L255.986 235.415L287.317 169.471C290.642 162.47 297.711 158 305.471 158H328C339.046 158 348 166.954 348 178V333"
    stroke="#F8FAFC"
    stroke-width="28"
    stroke-linecap="round"
    stroke-linejoin="round"
  />

  <path
    d="M160 320C194 294 226 282 256 282C286 282 319 294 354 320"
    stroke="url(#railGradient)"
    stroke-width="12"
    stroke-linecap="round"
    stroke-linejoin="round"
  />

  <circle cx="160" cy="320" r="14" fill="#38BDF8"/>
  <circle cx="256" cy="282" r="16" fill="#F8FAFC"/>
  <circle cx="354" cy="320" r="14" fill="#22C55E"/>

  <circle cx="354" cy="320" r="24" stroke="#22C55E" stroke-opacity="0.3" stroke-width="2"/>
  <circle cx="160" cy="320" r="24" stroke="#38BDF8" stroke-opacity="0.3" stroke-width="2"/>
</svg>
